<svg width="14" height="18" viewBox="0 0 14 18" fill="none" xmlns="http://www.w3.org/2000/svg">
<path d="M0.542253 6.50732H13.4577C13.7535 6.50732 14 6.7538 14 7.04958V16.958C14 17.2538 13.7535 17.5003 13.4577 17.5003H0.542253C0.246479 17.5003 0 17.2538 0 16.958V7.04958C0 6.7538 0.246479 6.50732 0.542253 6.50732Z" fill="#045404"/>
<path d="M11.7819 7.83803H2.26782V4.73239C2.26782 2.11972 4.38754 0 7.00022 0C9.61289 0 11.7326 2.11972 11.7326 4.73239V7.83803H11.7819ZM3.7467 6.35915H10.303V4.73239C10.303 2.90845 8.82416 1.47887 7.04951 1.47887C5.27486 1.47887 3.79599 2.95775 3.79599 4.73239V6.35915H3.7467Z" fill="#045404"/>
<path d="M7.00042 13.9999C7.7355 13.9999 8.33141 13.404 8.33141 12.6689C8.33141 11.9338 7.7355 11.3379 7.00042 11.3379C6.26534 11.3379 5.66943 11.9338 5.66943 12.6689C5.66943 13.404 6.26534 13.9999 7.00042 13.9999Z" fill="white"/>
<path d="M7.73888 13.8032H6.26001V15.6765H7.73888V13.8032Z" fill="white"/>
</svg>
