<svg width="217" height="237" viewBox="0 0 217 237" fill="none" xmlns="http://www.w3.org/2000/svg">
<path d="M105.978 128.499C114.864 120.939 123.878 126.907 124.522 127.305C126.196 128.632 126.711 129.029 128.514 132.213C129.673 134.467 129.802 135.528 130.317 137.385C131.219 136.192 133.923 132.478 134.309 131.815L175.133 70.6715C176.936 68.0189 177.58 64.7031 177.064 61.3873C176.421 58.2042 174.746 55.2863 172.042 53.4294L100.44 2.89678C97.8645 1.03994 94.645 0.376785 91.4255 0.907311C88.3347 1.57047 85.5016 3.29468 83.6986 6.07994L2.95327 127.305C1.15034 129.958 0.506439 133.274 1.02156 136.589C1.66546 139.773 3.33961 142.69 6.044 144.547L39.5269 168.156C35.9211 179.164 39.0118 188.846 40.4284 192.56L35.2772 200.253C34.8908 200.916 34.7621 201.579 34.8908 202.375C35.0196 203.17 35.4059 203.701 36.0499 204.232L80.4791 235.665C81.123 236.063 81.7669 236.196 82.5396 236.063C83.3123 235.93 83.8274 235.533 84.3425 234.869L99.0235 212.853L139.718 180.756C142.165 178.899 144.097 176.379 145.513 173.594C146.93 170.808 147.703 167.758 147.831 164.575L148.99 127.305C148.99 126.907 148.99 126.509 148.862 126.244C148.733 125.846 148.604 125.581 148.346 125.316C148.089 125.05 147.831 124.785 147.445 124.653C147.059 124.52 146.801 124.387 146.415 124.387C146.028 124.387 145.642 124.387 145.384 124.52C144.998 124.653 144.741 124.918 144.483 125.183C144.225 125.448 143.968 125.714 143.839 126.112C143.71 126.509 143.582 126.775 143.582 127.173L142.423 164.442C142.294 166.697 141.779 169.084 140.748 171.074C139.718 173.196 138.302 174.92 136.499 176.379L95.4177 208.741C95.1601 208.874 95.0313 209.139 94.7738 209.404L81.3806 229.432L41.4586 201.181L45.8372 194.549C46.0947 194.152 46.2235 193.621 46.3523 193.09C46.3523 192.56 46.2235 192.029 46.0947 191.632C43.2616 185.398 42.6177 178.368 44.2918 171.604L55.1094 179.297C53.9503 184.469 53.8216 190.968 57.0411 197.467C57.2986 197.865 57.5562 198.263 57.9425 198.528C58.4577 198.926 59.1016 199.059 59.6167 199.059C60.2606 199.059 60.7757 198.794 61.2908 198.396C61.806 197.998 62.0635 197.467 62.1923 196.804C62.3211 196.141 62.1923 195.61 61.9347 194.947C56.3972 184.204 63.7377 172.267 63.7377 172.267C74.0401 156.749 87.562 159.8 88.0772 159.933C88.5923 160.065 89.2362 160.065 89.7513 159.8C90.2664 159.535 90.6528 159.269 91.0391 158.739L106.235 135.926C107.394 134.202 109.197 133.141 111.258 132.743C113.318 132.345 115.379 132.876 117.053 134.069C118.727 135.263 119.886 137.12 120.272 139.109C120.659 141.099 120.272 143.354 119.113 145.078L100.955 172.4C100.698 172.665 100.569 173.063 100.44 173.461C100.311 173.859 100.311 174.257 100.44 174.522C100.44 174.92 100.569 175.318 100.826 175.583C101.084 175.848 101.342 176.114 101.599 176.379C101.857 176.644 102.243 176.777 102.629 176.777C103.016 176.909 103.402 176.909 103.66 176.777C104.046 176.644 104.304 176.512 104.69 176.379C104.947 176.114 105.205 175.848 105.463 175.583L123.621 148.261C125.552 145.343 126.196 141.629 125.552 138.181C124.908 134.733 122.848 131.549 120.015 129.56C117.182 127.57 113.704 126.775 110.227 127.305C106.75 127.968 103.788 129.958 101.728 132.743" fill="#EACF78"/>
<path d="M71.9795 145.874C72.6234 146.272 73.2673 146.404 74.04 146.272C74.8127 146.139 75.3278 145.741 75.8429 145.078L95.9327 114.971C96.319 114.308 96.4478 113.644 96.319 112.849C96.1902 112.185 95.8039 111.522 95.16 111.124C94.6449 110.726 93.8722 110.594 93.2283 110.726C92.5844 110.859 91.9405 111.257 91.5541 111.788L71.4644 141.895C71.2068 142.16 71.078 142.558 71.078 142.956C70.9493 143.354 70.9493 143.752 71.078 144.017C71.2068 144.415 71.3356 144.68 71.4644 145.078C71.4644 145.476 71.7219 145.741 71.9795 145.874Z" fill="white"/>
<path d="M98.2508 101.707C98.1221 101.84 98.1221 102.105 98.1221 102.238C98.1221 102.371 98.1221 102.636 98.1221 102.769C98.1221 102.901 98.1221 103.166 98.1221 103.299C98.2509 103.83 98.5084 104.36 98.8948 104.758C99.2811 105.156 99.7962 105.421 100.311 105.554C100.826 105.686 101.342 105.686 101.857 105.421C102.372 105.156 102.758 104.891 103.145 104.36C103.273 104.227 103.273 104.095 103.402 103.83C103.531 103.697 103.531 103.432 103.531 103.299C103.531 103.166 103.531 102.901 103.531 102.769C103.531 102.636 103.531 102.371 103.531 102.238C103.402 101.84 103.273 101.575 103.145 101.177C102.887 100.912 102.758 100.646 102.372 100.381C102.114 100.116 101.728 99.9833 101.342 99.9833C100.955 99.8506 100.569 99.8506 100.311 99.9833C100.183 99.9833 99.925 100.116 99.7962 100.116C99.6674 100.249 99.4099 100.249 99.2811 100.381C99.1523 100.514 99.0235 100.646 98.8948 100.779C98.766 100.912 98.6372 101.044 98.5084 101.177C98.3796 101.442 98.2508 101.575 98.2508 101.707Z" fill="white"/>
<path d="M104.819 93.219C104.947 93.8821 105.334 94.5453 105.978 95.0758C106.621 95.4737 107.265 95.6063 108.038 95.4737C108.167 95.4737 108.424 95.3411 108.553 95.3411C108.682 95.2085 108.94 95.2084 109.068 95.0758C109.197 94.9432 109.326 94.8106 109.455 94.6779C109.712 94.4127 109.97 94.1474 110.099 93.7495C110.227 93.6169 110.227 93.3516 110.227 93.219C110.227 93.0863 110.227 92.8211 110.227 92.6885C110.227 92.5558 110.227 92.2906 110.227 92.1579C110.099 91.76 109.97 91.4948 109.841 91.0969C109.712 90.699 109.455 90.5663 109.068 90.3011C108.811 90.0358 108.424 89.9032 108.038 89.9032C107.652 89.7706 107.265 89.7706 107.008 89.9032C106.621 90.0358 106.364 90.1684 105.978 90.3011C105.849 90.4337 105.72 90.5663 105.591 90.699C105.462 90.8316 105.334 90.9642 105.205 91.0969C104.819 91.76 104.69 92.4232 104.819 93.219Z" fill="white"/>
<path d="M111.644 81.945C111.644 82.0777 111.515 82.3429 111.644 82.4756C111.644 82.6082 111.644 82.8734 111.644 83.0061C111.773 83.6692 112.159 84.3324 112.803 84.8629C113.447 85.2608 114.091 85.3934 114.863 85.2608C115.25 85.1282 115.507 84.9956 115.894 84.8629C116.151 84.5977 116.409 84.465 116.666 84.0671C116.795 83.9345 116.795 83.8019 116.924 83.5366C117.053 83.404 117.053 83.1387 117.053 83.0061C117.053 82.8734 117.053 82.6082 117.053 82.4756C117.053 82.3429 117.053 82.0777 117.053 81.945C116.924 81.5471 116.795 81.2819 116.666 80.884C116.409 80.6187 116.28 80.3535 115.894 80.0882C115.636 79.8229 115.25 79.6903 114.863 79.6903C114.477 79.5577 114.091 79.5577 113.833 79.6903C113.704 79.6903 113.447 79.8229 113.318 79.8229C113.189 79.8229 112.932 79.9556 112.803 80.0882C112.674 80.2208 112.545 80.3535 112.417 80.4861C112.288 80.6187 112.159 80.7513 112.03 80.884C111.901 81.0166 111.901 81.1492 111.773 81.4145C111.773 81.5471 111.644 81.6798 111.644 81.945Z" fill="white"/>
<path d="M173.974 45.0734C173.716 44.5428 173.716 43.8797 173.974 43.2165C174.489 42.2881 175.648 41.8902 176.549 42.4207C185.693 47.3281 190.844 57.806 189.556 68.2839C189.427 69.3449 188.397 70.1407 187.367 70.0081C186.337 69.8755 185.564 68.8144 185.693 67.7534C186.852 58.867 182.344 50.1134 174.746 45.8691C174.489 45.7365 174.231 45.4713 173.974 45.0734Z" fill="#EACF78"/>
<path d="M178.996 32.2081C178.739 31.6776 178.739 31.0144 178.996 30.4839C179.511 29.5555 180.67 29.025 181.572 29.5555C197.283 37.3807 206.04 55.0208 202.692 72.7934C202.434 73.8544 201.533 74.5176 200.374 74.385C199.343 74.1197 198.7 73.1913 198.828 71.9976C201.79 56.0818 194.063 40.166 179.898 33.1365C179.511 32.8713 179.125 32.606 178.996 32.2081Z" fill="#EACF78"/>
<path d="M183.632 19.0777C183.375 18.5472 183.375 17.884 183.632 17.3535C184.019 16.2925 185.178 15.8946 186.208 16.2925C208.487 26.5051 220.85 51.8377 215.57 76.3746C215.312 77.4356 214.282 78.0988 213.252 77.8335C212.222 77.5683 211.578 76.5072 211.835 75.4462C216.6 52.7662 205.139 29.2904 184.663 19.8735C184.148 19.8735 183.89 19.4756 183.632 19.0777Z" fill="#EACF78"/>
<path d="M164.186 65.366C162.641 62.0502 163.929 57.9386 167.148 56.3471C170.368 54.7555 174.36 56.0818 175.905 59.3976C177.451 62.7134 176.163 66.825 172.944 68.4165C169.724 70.0081 165.861 68.6818 164.186 65.366ZM172.428 61.1218C171.785 59.7955 170.11 59.265 168.823 59.9281C167.535 60.5913 167.02 62.3155 167.664 63.6418C168.307 64.9681 169.982 65.4986 171.269 64.8355C172.557 64.1723 173.072 62.4481 172.428 61.1218Z" fill="#EACF78"/>
</svg>
